# xmcd
#
# Track frame offsets: 
#        150
#        15796
#        27564
#        45300
#        65852
#        89510
#        104773
#        120193
#        140549
#        153499
#        178242
#
# Disc length: 2626 seconds
#
# Revision: 4
# Processed by: cddbd v1.5.2PL0 Copyright (c) Steve Scherf et al.
# Submitted via: ExactAudioCopy v0.99pb4
#
DISCID=910a400b
DTITLE=Hubert Sumlin - "Healing Feeling"
DYEAR=1990
DGENRE=Blues
TTITLE0=I Don't Want To Hear About Your
TTITLE1=Healing Feeling
TTITLE2=Just Like I Treat You
TTITLE3=Come Back Little Girl
TTITLE4=Play It Cool
TTITLE5=Without A Friend Like You
TTITLE6=I Don't Want No Woman
TTITLE7=Blue Shadows
TTITLE8=Down The Dusty Road
TTITLE9=Honey Dumplins
TTITLE10=Blues For Henry
EXTD=YEAR: 1990 ID3G: 0
EXTT0=
EXTT1=
EXTT2=
EXTT3=
EXTT4=
EXTT5=
EXTT6=
EXTT7=
EXTT8=
EXTT9=
EXTT10=
PLAYORDER=
